# xmcd
#
# Track frame offsets:
#	150
#	12801
#	41469
#	71676
#	90800
#	112616
#	128010
#	145596
#	169297
#	188956
#
# Disc length: 2759 seconds
# Revision: 0
# Processed by: cddbd v1.5.2PL0 Copyright (c) Steve Scherf et al.
# Submitted via: dBpowerAMP V12.0
#
DISCID=720ac50a
DTITLE=Sam Quinn - The Fake that Sunk a Thousand Ships
DYEAR=2010
DGENRE=Country
TTITLE0=Hello
TTITLE1=Fanboy
TTITLE2=So Strong
TTITLE3=Suite Motown
TTITLE4=Strange Wave
TTITLE5=Gun
TTITLE6=Mardis Gras
TTITLE7=Help Me
TTITLE8=Late the Other Night
TTITLE9=River
EXTD=
EXTT0=
EXTT1=
EXTT2=
EXTT3=
EXTT4=
EXTT5=
EXTT6=
EXTT7=
EXTT8=
EXTT9=
PLAYORDER=
